<mxfile host="app.diagrams.net" modified="2024-05-25T17:42:45.878Z" agent="Mozilla/5.0 (Windows NT 10.0; Win64; x64; rv:126.0) Gecko/20100101 Firefox/126.0" etag="r6UtmlKC4QbjyLCu9Jac" version="24.4.8" type="device">
  <diagram id="C5RBs43oDa-KdzZeNtuy" name="Page-1">
    <mxGraphModel dx="1077" dy="583" grid="1" gridSize="10" guides="1" tooltips="1" connect="1" arrows="1" fold="1" page="1" pageScale="1" pageWidth="827" pageHeight="1169" math="0" shadow="0">
      <root>
        <mxCell id="WIyWlLk6GJQsqaUBKTNV-0" />
        <mxCell id="WIyWlLk6GJQsqaUBKTNV-1" parent="WIyWlLk6GJQsqaUBKTNV-0" />
        <mxCell id="jX4DcfGXth7p4Tqe4Yln-0" value="" style="ellipse;shape=startState;fillColor=#000000;strokeColor=#ff0000;" vertex="1" parent="WIyWlLk6GJQsqaUBKTNV-1">
          <mxGeometry x="280" y="80" width="30" height="30" as="geometry" />
        </mxCell>
        <mxCell id="jX4DcfGXth7p4Tqe4Yln-2" value="&lt;font style=&quot;font-size: 9px;&quot;&gt;Захват экрана пользователя&lt;br&gt;&lt;/font&gt;" style="rounded=1;whiteSpace=wrap;html=1;" vertex="1" parent="WIyWlLk6GJQsqaUBKTNV-1">
          <mxGeometry x="260" y="120" width="70" height="30" as="geometry" />
        </mxCell>
        <mxCell id="jX4DcfGXth7p4Tqe4Yln-3" value="" style="endArrow=classic;html=1;rounded=0;exitX=0.5;exitY=1;exitDx=0;exitDy=0;" edge="1" parent="WIyWlLk6GJQsqaUBKTNV-1" source="jX4DcfGXth7p4Tqe4Yln-2">
          <mxGeometry width="50" height="50" relative="1" as="geometry">
            <mxPoint x="283.25" y="162.07" as="sourcePoint" />
            <mxPoint x="295" y="170" as="targetPoint" />
          </mxGeometry>
        </mxCell>
        <mxCell id="jX4DcfGXth7p4Tqe4Yln-6" value="" style="endArrow=classic;html=1;rounded=0;entryX=0.5;entryY=0;entryDx=0;entryDy=0;" edge="1" parent="WIyWlLk6GJQsqaUBKTNV-1" target="jX4DcfGXth7p4Tqe4Yln-2">
          <mxGeometry width="50" height="50" relative="1" as="geometry">
            <mxPoint x="295" y="100" as="sourcePoint" />
            <mxPoint x="294.88" y="110" as="targetPoint" />
          </mxGeometry>
        </mxCell>
        <mxCell id="jX4DcfGXth7p4Tqe4Yln-7" value="&lt;font style=&quot;font-size: 9px;&quot;&gt;Обрезание изображения&lt;br&gt;&lt;/font&gt;" style="rounded=1;whiteSpace=wrap;html=1;" vertex="1" parent="WIyWlLk6GJQsqaUBKTNV-1">
          <mxGeometry x="260" y="170" width="70" height="30" as="geometry" />
        </mxCell>
        <mxCell id="jX4DcfGXth7p4Tqe4Yln-16" value="" style="edgeStyle=orthogonalEdgeStyle;rounded=0;orthogonalLoop=1;jettySize=auto;html=1;" edge="1" parent="WIyWlLk6GJQsqaUBKTNV-1" source="jX4DcfGXth7p4Tqe4Yln-8" target="jX4DcfGXth7p4Tqe4Yln-14">
          <mxGeometry relative="1" as="geometry" />
        </mxCell>
        <mxCell id="jX4DcfGXth7p4Tqe4Yln-17" value="" style="edgeStyle=orthogonalEdgeStyle;rounded=0;orthogonalLoop=1;jettySize=auto;html=1;" edge="1" parent="WIyWlLk6GJQsqaUBKTNV-1" source="jX4DcfGXth7p4Tqe4Yln-8" target="jX4DcfGXth7p4Tqe4Yln-14">
          <mxGeometry relative="1" as="geometry" />
        </mxCell>
        <mxCell id="jX4DcfGXth7p4Tqe4Yln-8" value="&lt;font style=&quot;font-size: 9px;&quot;&gt;Получение телеметрии грузовика&lt;br&gt;&lt;/font&gt;" style="rounded=1;whiteSpace=wrap;html=1;" vertex="1" parent="WIyWlLk6GJQsqaUBKTNV-1">
          <mxGeometry x="260" y="270" width="70" height="50" as="geometry" />
        </mxCell>
        <mxCell id="jX4DcfGXth7p4Tqe4Yln-9" value="" style="endArrow=classic;html=1;rounded=0;exitX=0.5;exitY=1;exitDx=0;exitDy=0;" edge="1" parent="WIyWlLk6GJQsqaUBKTNV-1">
          <mxGeometry width="50" height="50" relative="1" as="geometry">
            <mxPoint x="294.89" y="200" as="sourcePoint" />
            <mxPoint x="294.89" y="220" as="targetPoint" />
          </mxGeometry>
        </mxCell>
        <mxCell id="jX4DcfGXth7p4Tqe4Yln-10" value="&lt;font style=&quot;font-size: 9px;&quot;&gt;Вычисление угла поворота маршрута&lt;/font&gt;" style="rounded=1;whiteSpace=wrap;html=1;" vertex="1" parent="WIyWlLk6GJQsqaUBKTNV-1">
          <mxGeometry x="250" y="220" width="90" height="30" as="geometry" />
        </mxCell>
        <mxCell id="jX4DcfGXth7p4Tqe4Yln-12" value="" style="endArrow=classic;html=1;rounded=0;exitX=0.5;exitY=1;exitDx=0;exitDy=0;" edge="1" parent="WIyWlLk6GJQsqaUBKTNV-1">
          <mxGeometry width="50" height="50" relative="1" as="geometry">
            <mxPoint x="294.83" y="320" as="sourcePoint" />
            <mxPoint x="294.83" y="340" as="targetPoint" />
          </mxGeometry>
        </mxCell>
        <mxCell id="jX4DcfGXth7p4Tqe4Yln-14" value="" style="rhombus;whiteSpace=wrap;html=1;" vertex="1" parent="WIyWlLk6GJQsqaUBKTNV-1">
          <mxGeometry x="280" y="340" width="30" height="30" as="geometry" />
        </mxCell>
        <mxCell id="jX4DcfGXth7p4Tqe4Yln-15" value="&lt;font style=&quot;font-size: 8px;&quot;&gt;Угол поворота руля больше 7.5%?&lt;/font&gt;" style="text;html=1;align=center;verticalAlign=middle;whiteSpace=wrap;rounded=0;" vertex="1" parent="WIyWlLk6GJQsqaUBKTNV-1">
          <mxGeometry x="300" y="320" width="80" height="30" as="geometry" />
        </mxCell>
        <mxCell id="jX4DcfGXth7p4Tqe4Yln-18" value="" style="endArrow=classic;html=1;rounded=0;exitX=0.5;exitY=1;exitDx=0;exitDy=0;" edge="1" parent="WIyWlLk6GJQsqaUBKTNV-1">
          <mxGeometry width="50" height="50" relative="1" as="geometry">
            <mxPoint x="294.83" y="250" as="sourcePoint" />
            <mxPoint x="294.83" y="270" as="targetPoint" />
          </mxGeometry>
        </mxCell>
        <mxCell id="jX4DcfGXth7p4Tqe4Yln-20" value="" style="endArrow=none;html=1;rounded=0;exitX=1;exitY=0.5;exitDx=0;exitDy=0;" edge="1" parent="WIyWlLk6GJQsqaUBKTNV-1" source="jX4DcfGXth7p4Tqe4Yln-14">
          <mxGeometry width="50" height="50" relative="1" as="geometry">
            <mxPoint x="160" y="420" as="sourcePoint" />
            <mxPoint x="380" y="355" as="targetPoint" />
          </mxGeometry>
        </mxCell>
        <mxCell id="jX4DcfGXth7p4Tqe4Yln-23" value="" style="endArrow=classic;html=1;rounded=0;exitX=1;exitY=1;exitDx=0;exitDy=0;" edge="1" parent="WIyWlLk6GJQsqaUBKTNV-1" source="jX4DcfGXth7p4Tqe4Yln-15">
          <mxGeometry width="50" height="50" relative="1" as="geometry">
            <mxPoint x="380" y="360" as="sourcePoint" />
            <mxPoint x="380" y="390" as="targetPoint" />
          </mxGeometry>
        </mxCell>
        <mxCell id="jX4DcfGXth7p4Tqe4Yln-28" value="" style="edgeStyle=orthogonalEdgeStyle;rounded=0;orthogonalLoop=1;jettySize=auto;html=1;" edge="1" parent="WIyWlLk6GJQsqaUBKTNV-1" source="jX4DcfGXth7p4Tqe4Yln-26" target="jX4DcfGXth7p4Tqe4Yln-27">
          <mxGeometry relative="1" as="geometry" />
        </mxCell>
        <mxCell id="jX4DcfGXth7p4Tqe4Yln-26" value="&lt;font style=&quot;font-size: 9px;&quot;&gt;Сохранение изображения и данных в таблицу&lt;/font&gt;" style="rounded=1;whiteSpace=wrap;html=1;" vertex="1" parent="WIyWlLk6GJQsqaUBKTNV-1">
          <mxGeometry x="330" y="390" width="106" height="40" as="geometry" />
        </mxCell>
        <mxCell id="jX4DcfGXth7p4Tqe4Yln-27" value="" style="ellipse;shape=endState;fillColor=#000000;strokeColor=#ff0000" vertex="1" parent="WIyWlLk6GJQsqaUBKTNV-1">
          <mxGeometry x="368" y="460" width="30" height="30" as="geometry" />
        </mxCell>
        <mxCell id="jX4DcfGXth7p4Tqe4Yln-29" value="&lt;font style=&quot;font-size: 9px;&quot;&gt;начало&lt;/font&gt;" style="text;html=1;align=center;verticalAlign=middle;whiteSpace=wrap;rounded=0;" vertex="1" parent="WIyWlLk6GJQsqaUBKTNV-1">
          <mxGeometry x="272" y="60" width="46" height="20" as="geometry" />
        </mxCell>
        <mxCell id="jX4DcfGXth7p4Tqe4Yln-30" value="&lt;font style=&quot;font-size: 9px;&quot;&gt;конец&lt;/font&gt;" style="text;html=1;align=center;verticalAlign=middle;whiteSpace=wrap;rounded=0;" vertex="1" parent="WIyWlLk6GJQsqaUBKTNV-1">
          <mxGeometry x="366" y="490" width="34" height="20" as="geometry" />
        </mxCell>
        <mxCell id="jX4DcfGXth7p4Tqe4Yln-31" value="" style="endArrow=none;html=1;rounded=0;exitX=0;exitY=0.5;exitDx=0;exitDy=0;" edge="1" parent="WIyWlLk6GJQsqaUBKTNV-1" source="jX4DcfGXth7p4Tqe4Yln-14">
          <mxGeometry width="50" height="50" relative="1" as="geometry">
            <mxPoint x="320" y="365" as="sourcePoint" />
            <mxPoint x="210" y="355" as="targetPoint" />
          </mxGeometry>
        </mxCell>
        <mxCell id="jX4DcfGXth7p4Tqe4Yln-32" value="" style="endArrow=classic;html=1;rounded=0;entryX=0.5;entryY=0;entryDx=0;entryDy=0;exitX=0;exitY=0;exitDx=0;exitDy=0;" edge="1" parent="WIyWlLk6GJQsqaUBKTNV-1" source="jX4DcfGXth7p4Tqe4Yln-35" target="jX4DcfGXth7p4Tqe4Yln-37">
          <mxGeometry width="50" height="50" relative="1" as="geometry">
            <mxPoint x="200" y="350" as="sourcePoint" />
            <mxPoint x="210" y="390" as="targetPoint" />
          </mxGeometry>
        </mxCell>
        <mxCell id="jX4DcfGXth7p4Tqe4Yln-33" value="&lt;font style=&quot;font-size: 9px;&quot;&gt;нет&lt;/font&gt;" style="text;html=1;align=center;verticalAlign=middle;whiteSpace=wrap;rounded=0;" vertex="1" parent="WIyWlLk6GJQsqaUBKTNV-1">
          <mxGeometry x="360" y="355" width="20" height="10" as="geometry" />
        </mxCell>
        <mxCell id="jX4DcfGXth7p4Tqe4Yln-35" value="&lt;font style=&quot;font-size: 9px;&quot;&gt;да&lt;/font&gt;" style="text;html=1;align=center;verticalAlign=middle;whiteSpace=wrap;rounded=0;" vertex="1" parent="WIyWlLk6GJQsqaUBKTNV-1">
          <mxGeometry x="210" y="350" width="30" height="20" as="geometry" />
        </mxCell>
        <mxCell id="jX4DcfGXth7p4Tqe4Yln-37" value="&lt;font style=&quot;font-size: 9px;&quot;&gt;&lt;span lang=&quot;ru&quot; class=&quot;ILfuVd&quot;&gt;&lt;span class=&quot;hgKElc&quot;&gt;Отзеркаливание&amp;nbsp; &lt;/span&gt;&lt;/span&gt;изображения&lt;/font&gt;" style="rounded=1;whiteSpace=wrap;html=1;" vertex="1" parent="WIyWlLk6GJQsqaUBKTNV-1">
          <mxGeometry x="168" y="395" width="82" height="30" as="geometry" />
        </mxCell>
        <mxCell id="jX4DcfGXth7p4Tqe4Yln-40" value="" style="endArrow=classic;html=1;rounded=0;entryX=0;entryY=0.5;entryDx=0;entryDy=0;exitX=1;exitY=0.5;exitDx=0;exitDy=0;" edge="1" parent="WIyWlLk6GJQsqaUBKTNV-1" source="jX4DcfGXth7p4Tqe4Yln-37" target="jX4DcfGXth7p4Tqe4Yln-26">
          <mxGeometry width="50" height="50" relative="1" as="geometry">
            <mxPoint x="268" y="430" as="sourcePoint" />
            <mxPoint x="318" y="380" as="targetPoint" />
          </mxGeometry>
        </mxCell>
      </root>
    </mxGraphModel>
  </diagram>
</mxfile>
